<svg xmlns="http://www.w3.org/2000/svg" xml:space="preserve" width="99" height="61" fill-rule="evenodd" clip-rule="evenodd" image-rendering="optimizeQuality" shape-rendering="geometricPrecision" text-rendering="geometricPrecision" viewBox="0 0 19.83 12.19"><path fill="#B22526" d="M6.57 4.91c-.03-.12-1.78-.13-1.83-.03 1.42 7.74 8.71 6.94 10.29 1.47.2-.66.85-1.1.96-1.48h-1.74l-.66.25c-.17.07-.85-1.17-1.8-1.03-.47.17-.81-.09-1.04.12-.53-.44-.44-.12-.79.05 0-.32-.63-.1-.91-.03-.41-.37-.45.07-.71 0-.93.08-1.75.64-1.77.68"/><path fill="#841B23" d="M9.64 5.36c.64.83.49 1.84.03 2.81-.75.27-2.29-.48-2.58-1.08.08-.91 1.37-1.5.79-1.45-1.31.12-1.94 1.59-1.29 1.94 1.42.73.43 2.15 3.29 2.14 3.69.4 3.35-2.76 4.42-3.19-.17-.22-.28-.19-.67-.18-.85 1.55-.95 1.86-2.86 1.86 0 0-.01-.02-.01-.01-.26-.5-.45-2.63.17-2.82-.02-.23-.76-.55-1.29-.02"/><path fill="#B22526" d="M5.68 1.75c-.15.21-.25.4-.37.62-.03.04-1.04.9-.61.94 0 0-.07.59 0 .91.02.11.84.3 1.05.32s.23.04.25-.18c.34-.01.24-.64.14-.75-.25-.28-.45-.18-.39-.72.02.01.32.25.36.29.23-.15.86-.44.91-.71 1.21 0 2.48 0 2.96-1.33 0-.06-.1-.09-.16-.09-1.05.52-.55.26-1.1.39-.33.08-.71.13-1.05.14-.03.04-.03.06-.03.1-.24 0-1.01-.49-1.04-.67-.13 0-.77.59-.92.74"/><path fill="#841B23" d="M8.93 1.46c.15.12.72-.33.89-.41.5.04-.69 1.42-2.8 1.42-.05.27-.68.56-.91.71-.04-.04-.34-.28-.36-.29-.06.54.14.44.39.72.1.11.2.74-.14.75-.02.22-.04.2-.25.18s-1.03-.21-1.05-.32c-.07-.32.06-1.12.06-1.12-.4-.04-.27 1.77-.02 1.78l.1.08c.49-.18 1.72-.04 1.73-.05-.16-.25-.8.03-.24-.62.04-.62-.14-.95.4-1 1.45-.13 3.42-.85 3.42-2.55-.3-.15-1.21.66-1.22.72M5.68 1.75c.14-.13.19-.18.34-.31.06-.08.53-.43.58-.43.03.18.8.67 1.04.67 0-.44.68-.6.97-.9.25-.26.75-.27 1-.39.06-.73-2.18-.1-2.72.36-.07-.04-1.12.45-1.21 1"/><path fill="#986965" d="M13.49 5.08c.6.36.81.54 1.33 1.12-.16-.11-1.24 1.81-1.15 1.93-3.17 3.05-2.02 2.2.12.44.94-1.23 1.44-1.99 1.23-2.53-.01-.14-.95-1.3-1.53-.96"/><path fill="#CC524B" d="M11.1 6.43c2.38.1-.27-2.4 0 0"/><path fill="#986965" d="M6.94 4.82c-.61.36-1.18.81-1.7 1.4.16-.11 1.24 1.81 1.15 1.92 3.03 2.8 1.81 2.08-.12.45-.93-1.23-1.44-2-1.23-2.53.02-.15 1.32-1.59 1.9-1.24"/><path fill="#B22526" d="M15.02 1.76c.04.06.04.05.08.1l.3.52c.13.24.52.23.71.92-.09-.04.01-.03-.17-.19 0 0 .13.8.07 1.12-.03.11-.85.3-1.06.32-.21.01-.23.04-.25-.18-.33-.01-.24-.64-.14-.75.25-.28.46-.18.39-.72-.02.01-.31.25-.35.28-.23-.14-.87-.43-.92-.7-1.21 0-2.47 0-2.95-1.34 0-.05.09-.08.16-.08 1.04.52.55.26 1.09.39.34.08.71.13 1.05.14.04.04.03.05.03.1.25 0 1.01-.49 1.04-.67.15 0 .78.61.92.74"/><path fill="#841B23" d="M11.78 1.47c-.16.12-.73-.33-.89-.41-.5.04.68 1.42 2.79 1.42.05.27.69.56.92.7.04-.03.33-.27.35-.28.07.54-.14.44-.39.72-.1.11-.19.74.14.75.02.22.04.19.25.18.21-.02 1.03-.21 1.06-.32.06-.32-.07-1.12-.07-1.12.34-.04.43 1.48-.07 1.86-.49-.18-1.73-.04-1.74-.05.16-.25.8.03.24-.62-.03-.63.15-.95-.39-1-1.45-.13-3.43-.85-3.43-2.56.31-.14 1.22.67 1.23.73M15.02 1.76c-.14-.13-.77-.74-.92-.74-.03.18-.79.67-1.04.67 0-.44-.67-.6-.96-.9-.25-.26-.75-.27-1-.39-.31-.56 1.76-.61 2.71.36.08-.04 1.12.45 1.21 1"/><path fill="#A21222" d="M11.47 10.11c.18-.12.19.02.37-.03 2.29-1.34 2.46-3.33 2.99-3.68.25-.21 1.53-1.1 1.61-1.3.26-.39 1.29-.65 1.74-.7 1.05-.11.77.16 1.38.8.2.21.43 1.32.13 1.51-.21-.05-.89-1.42-1.54-1.59-.14.39-1.53.9-1.83 1.2-.12.12-.61.64-.62.76.84 0 2.27-.74 2.91-.31 1.01.8.94 1.4.84 2.6-.14.01-.56-.93-1.04-1.4.03.17-2.5.25-2.56.06.05.22.66.58.87.79.39.39 1.24 1.1 1.26 1.64.02.37-.23 1.42-.67 1.42 0-.75-.2-1.25-.2-1.64-.16 0-.89-.27-1.01-.33-.55-.37-.84-.97-.9-1.01-.25.19-.36.28-.65.42.01.24.79.37 1.01.66.27.37.11 1.03.05 1.46-.23.4-1.21 1.03-1.19.61.01-.1.49-.6.55-.78.04-.14-.12-.71-.23-.87-.03-.03-.68-.3-.78-.34-.01-.01-2.49.57-2.49.05M8.82 10.17c-.18-.12-.65-.2-.82-.24-2.29-1.34-2.47-3.32-3-3.67-.24-.22-1.52-1.1-1.61-1.31-.25-.38-1.29-.64-1.73-.69-1.05-.11-.78.16-1.39.8-.2.21-.42 1.31-.13 1.51.21-.05.9-1.42 1.54-1.59.14.39 1.54.9 1.83 1.2.12.12.62.64.63.76-.85 0-2.27-.74-2.92-.31-1.01.8-.93 1.4-.83 2.6.13.01.56-.93 1.03-1.4-.03.16 2.5.25 2.56.06-.05.22-.66.57-.87.78-.38.4-1.23 1.1-1.26 1.65-.01.37.24 1.41.67 1.41 0-.74.2-1.24.2-1.63.16 0 .89-.27 1.02-.33.54-.37.83-.97.9-1.02.24.2.35.29.64.43 0 .23-.78.37-1 .66-.28.36-.11 1.03-.06 1.46.23.4 1.21 1.02 1.19.61-.01-.1-.48-.6-.54-.78-.05-.14.12-.72.23-.87.02-.04.67-.3.77-.34.11-.04 2.75.66 2.95.25"/></svg>